<svg xmlns="http://www.w3.org/2000/svg" viewBox="0 0 170 45"><path d="M20.5 28c-.1 0-.2-.1-.2-.2v-11c0-.2.1-.2.2-.2h4c2.7 0 4.3 1.4 4.3 4.2v3c0 2.8-1.7 4.2-4.3 4.2h-4zm1.7-1.8h2.3c1.5 0 2.3-.8 2.3-2.4v-3.1c0-1.6-.8-2.4-2.3-2.4h-2.3v7.9zM35.2 28.2c-2.8 0-4.5-1.6-4.5-4.5v-2.9c0-2.8 1.7-4.4 4.5-4.4s4.5 1.6 4.5 4.4v2.9c0 2.8-1.7 4.5-4.5 4.5zm0-1.8c1.7 0 2.5-.9 2.5-2.6v-2.9c0-1.7-.9-2.6-2.5-2.6s-2.5.9-2.5 2.6v2.9c0 1.7.8 2.6 2.5 2.6zM44.1 28c-.1 0-.2-.1-.3-.2l-3-11c0-.2 0-.3.2-.3h1.6c.1 0 .2 0 .3.2l1.3 5.3c.3 1.1.5 2.4.8 3.6.3-1.2.6-2.7 1-3.9l1.4-4.9c0-.1.1-.2.3-.2h1.6c.1 0 .2.1.3.2l1.4 4.9c.3 1.2.7 2.7 1 3.9.2-1.2.5-2.5.8-3.6l1.3-5.3c0-.2.1-.2.2-.2h1.6c.2 0 .3.1.2.3l-3 11c0 .1-.1.2-.3.2H51c-.1 0-.2-.1-.3-.2l-1.5-5c-.4-1.2-.7-2.6-.8-3.6h-.1c-.2 1-.5 2.3-.8 3.6l-1.5 5c0 .1-.1.2-.3.2h-1.6zM57.6 28c-.1 0-.2-.1-.2-.2v-11c0-.2.1-.2.2-.2h1.6c.1 0 .2.1.3.2l3.1 5.4c.5 1 1.2 2 1.6 2.9-.1-1.4-.1-3-.1-4.3v-3.9c0-.2.1-.2.2-.2h1.4c.2 0 .2.1.2.2v11c0 .2-.1.2-.2.2h-1.6c-.1 0-.2 0-.3-.2l-3-5c-.6-1-1.3-2.2-1.7-3.2.1 1.4.1 3 .1 4.4v3.7c0 .2-.1.2-.2.2h-1.4zM68.9 28c-.1 0-.2-.1-.2-.2v-11c0-.2.1-.2.2-.2h1.5c.1 0 .2.1.2.2v9.4h4.7c.2 0 .2.1.2.2v1.3c0 .2-.1.2-.2.2h-6.4zM81 28.2c-2.8 0-4.5-1.6-4.5-4.5v-2.9c0-2.8 1.7-4.4 4.5-4.4s4.5 1.6 4.5 4.4v2.9c0 2.8-1.6 4.5-4.5 4.5zm0-1.8c1.7 0 2.5-.9 2.5-2.6v-2.9c0-1.7-.9-2.6-2.5-2.6s-2.5.9-2.5 2.6v2.9c0 1.7.9 2.6 2.5 2.6zM86.6 28c-.2 0-.2-.1-.2-.3l3.8-11c0-.1.1-.2.3-.2h1.8c.1 0 .2.1.3.2l3.8 11c0 .2 0 .3-.2.3h-1.6c-.1 0-.2-.1-.3-.2l-.8-2.4h-4.4l-.8 2.4c0 .1-.1.2-.3.2h-1.4zm3.2-4.4h3.3l-1.6-5h-.1l-1.6 5zM98.1 28c-.1 0-.2-.1-.2-.2v-11c0-.2.1-.2.2-.2h4c2.7 0 4.3 1.4 4.3 4.2v3c0 2.8-1.7 4.2-4.3 4.2h-4zm1.7-1.8h2.3c1.5 0 2.3-.8 2.3-2.4v-3.1c0-1.6-.8-2.4-2.3-2.4h-2.3v7.9zM112.3 28c-.1 0-.2-.1-.2-.2v-11c0-.2.1-.2.2-.2h1.6c.1 0 .2.1.3.2l3.1 5.4c.5 1 1.2 2 1.6 2.9-.1-1.4-.1-3-.1-4.3v-3.9c0-.2.1-.2.2-.2h1.4c.2 0 .2.1.2.2v11c0 .2-.1.2-.2.2h-1.6c-.1 0-.2 0-.3-.2l-3-5c-.6-1-1.3-2.2-1.7-3.2.1 1.4.1 3 .1 4.4v3.7c0 .2-.1.2-.2.2h-1.4zM127.5 28.2c-2.8 0-4.5-1.6-4.5-4.5v-2.9c0-2.8 1.7-4.4 4.5-4.4s4.5 1.6 4.5 4.4v2.9c0 2.8-1.7 4.5-4.5 4.5zm0-1.8c1.7 0 2.5-.9 2.5-2.6v-2.9c0-1.7-.9-2.6-2.5-2.6s-2.5.9-2.5 2.6v2.9c0 1.7.8 2.6 2.5 2.6zM136.4 28c-.1 0-.2-.1-.3-.2l-3-11c0-.2 0-.3.2-.3h1.6c.1 0 .2 0 .3.2l1.3 5.3c.3 1.1.5 2.4.8 3.6.3-1.2.6-2.7 1-3.9l1.4-4.9c0-.1.1-.2.3-.2h1.6c.1 0 .2.1.3.2l1.4 4.9c.3 1.2.7 2.7 1 3.9.2-1.2.5-2.5.8-3.6l1.3-5.3c0-.2.1-.2.2-.2h1.6c.2 0 .3.1.2.3l-3 11c0 .1-.1.2-.3.2h-1.7c-.1 0-.2-.1-.3-.2l-1.5-5c-.4-1.2-.7-2.6-.8-3.6h-.1c-.2 1-.5 2.3-.8 3.6l-1.5 5c0 .1-.1.2-.3.2h-1.7z"/><path d="M14 1h142c7.2 0 13 5.8 13 13v17c0 7.2-5.8 13-13 13H14C6.8 44 1 38.2 1 31V14C1 6.8 6.8 1 14 1z" fill="none" stroke="#000" stroke-width="2"/></svg>