<svg width="34" height="34" xmlns="http://www.w3.org/2000/svg"><path d="M21.7 17.042l.4-3.593h-3.455c0-.828-.033-1.604.013-2.376.028-.471.377-.71.898-.72.48-.011.96-.004 1.44-.004h1.021V6.8c-1.565.051-3.113.026-4.642.177-1.159.115-2.07.752-2.669 1.71-.481.77-.657 1.612-.666 2.49-.007.74-.001 1.48-.001 2.268h-2.14v3.607h2.144V27.2h4.578V17.042H21.7zM16.982 0C26.347-.032 33.942 7.54 34 16.965c.056 9.368-7.565 17.013-16.984 17.035C7.623 34.022 0 26.406 0 17 0 7.608 7.57.032 16.982 0z" fill="#000" fill-rule="evenodd"/></svg>