<svg width="34" height="34" xmlns="http://www.w3.org/2000/svg" xmlns:xlink="http://www.w3.org/1999/xlink"><defs><path id="a" d="M.371.06h33.395v33.057H.37z"/></defs><g fill="none" fill-rule="evenodd"><mask id="b" fill="#fff"><use xlink:href="#a"/></mask><path d="M8.717 10.927c1.423 0 2.608-1.175 2.591-2.568-.016-1.396-1.228-2.565-2.635-2.54-1.387.023-2.537 1.175-2.543 2.548-.006 1.42 1.147 2.56 2.587 2.56zM6.523 26.97h4.344V12.902H6.523V26.97zm11.64.002v-.823c0-2.08-.01-4.16.009-6.241a7.805 7.805 0 01.172-1.6c.196-.888.673-1.567 1.63-1.81 1.806-.456 3.048.423 3.094 2.295.06 2.446.036 4.895.048 7.342v.808h4.425c0-3.068.008-6.074-.008-9.08-.003-.486-.086-.976-.178-1.455-.47-2.454-1.972-3.729-4.488-3.886-1.96-.123-3.59.456-4.891 2.268v-1.887h-4.22v14.07h4.408zM15.787.06h2.526c.14.038.276.098.417.112 6.696.65 12.376 5.238 14.288 11.605.348 1.158.504 2.373.749 3.561v2.498c-.056.358-.115.715-.167 1.073-1.303 9.021-9.822 15.345-18.911 14.037C5.839 31.673-.368 23.872.442 15.043 1.058 8.337 5.708 2.695 12.252.786c1.15-.335 2.355-.488 3.534-.726z" fill="#000" mask="url(#b)"/></g></svg>