<svg xmlns="http://www.w3.org/2000/svg" width="258" height="301"><defs><linearGradient id="prefix__a" x1="50%" x2="50%" y1="0%" y2="100%"><stop offset="0%" stop-color="#8453F0"/><stop offset="100%" stop-color="#361869"/></linearGradient></defs><g fill="none" fill-rule="evenodd" transform="translate(.523 .429)"><text fill="#FFF" font-family="Poppins-SemiBold, Poppins" font-size="24" font-weight="500" letter-spacing="-.36"><tspan x="134.231" y="80.722">₹</tspan></text><path fill="#E8FCFF" d="M0 150.035C0 67.205 67.135.05 149.965.029L257.477 0v299.93l-107.512.03C67.165 299.982.022 232.876 0 150.075v-.04z"/><path fill="url(#prefix__a)" d="M95.235 157.632c15.814-7.6 29.278-19.594 37.78-35.08 10.335-18.826 9.17-38.432 9.17-59.345V32.03C91.7 28.052 70.726 0 70.726 0S49.749 28.052-.736 32.03v31.177c0 20.913-1.16 40.519 9.176 59.345 8.497 15.486 21.966 27.48 37.774 35.08 7.828 3.76 16.035 6.477 24.495 8.368 8.46-1.89 16.698-4.607 24.526-8.368z" transform="translate(80.252 62.571)"/><path fill="#361869" d="M151.477 228.571c8.399-1.89 16.578-4.607 24.35-8.367 15.698-7.6 29.065-19.595 37.506-35.08 10.26-18.827 9.105-38.432 9.105-59.346V94.601c-50.121-3.977-70.945-32.03-70.945-32.03l-.016 166z"/><circle cx="151.477" cy="152.751" r="19.529" fill="#FDAD78"/></g></svg>