<svg xmlns="http://www.w3.org/2000/svg" xmlns:xlink="http://www.w3.org/1999/xlink" width="285" height="301"><defs><path id="prefix__a" d="M0 0h201v9H0z"/></defs><g fill="none" fill-rule="evenodd"><path fill="#FFEFF4" d="M.336 150.5c0-82.843 67.157-150 150-150H285v300H150.336c-82.843 0-150-67.157-150-150z"/><g transform="translate(54 205)"><mask id="prefix__b" fill="#fff"><use xlink:href="#prefix__a"/></mask><path fill="#DEBDC7" d="M201 4.5C201 6.985 156.005 9 100.5 9S0 6.985 0 4.5 44.995 0 100.5 0 201 2.015 201 4.5" mask="url(#prefix__b)"/></g><path fill="#FF7572" d="M61.006 209h121.988a1.998 1.998 0 0 0 2.006-1.99V188H59v19.01c0 1.099.898 1.99 2.006 1.99M115 188h131v-84H119.54a4.539 4.539 0 0 0-4.54 4.538V188z"/><path fill="#9E4178" d="M124 187h113v-74H124z"/><path fill="#DB5E5E" d="M184 209h57.962c2.23 0 4.038-1.792 4.038-4.004V188h-62v21z"/><path fill="#DB5E5E" d="M244 190h6.49c2.49 0 4.51-1.91 4.51-4.267v-77.466c0-2.357-2.02-4.267-4.51-4.267H244v86z"/><path stroke="#FF7572" stroke-linecap="square" stroke-linejoin="round" stroke-width="8" d="M200 101V88h-39v13"/><path fill="#9E4178" d="M156 179h34v-7h-34z"/><path fill="#792C56" d="M161 172v7m8-7v7m7-7v7m9-7v7"/><path fill="#9E4178" d="M155 187h34v-7h-34z"/><path fill="#792C56" d="M161 180v7m8-7v7m7-7v7m9-7v7"/><path fill="#9E4178" d="M156 180h34v-1h-34zm-41 0h34v-7h-34z"/><path fill="#792C56" d="M122 173v7m7-7v7m7-7v7m7-7v7"/><path fill="#9E4178" d="M115 172h34v-7h-34zm8-7v7m7-7v7m7-7v7m7-7v7m-29 15h34v-7h-34z"/><path fill="#792C56" d="M122 180v7m7-7v7m7-7v7m7-7v7"/><path fill="#9E4178" d="M115 173h34v-1h-34zm0 8h34v-1h-34z"/><path fill="#FAB46D" d="M113 180h34v-7h-34zm81-3h34v-7h-34z"/><path stroke="#DE8131" stroke-width=".908" d="M119 173v7m82-10v7m-75-4v7m82-10v7m-74-4v7m81-10v7m-74-4v7m81-10v7"/><path fill="#FAB46D" d="M113 172h34v-7h-34zm81-2h34v-7h-34z"/><path stroke="#DE8131" stroke-width=".908" d="M120 165v7m82-9v7m-75-5v7m81-9v7m-73-5v7m81-9v7m-74-5v7m81-9v7"/><path fill="#FAB46D" d="M113 187h34v-7h-34zm81-2h34v-7h-34z"/><path stroke="#DE8131" stroke-width=".908" d="M119 180v7m82-9v7m-75-5v7m82-9v7m-74-5v7m81-9v7m-74-5v7m81-9v7"/><path fill="#9E4178" d="M113 173h34v-1h-34zm81-3h34v-1h-34zm-81 11h34v-1h-34zm81-3h34v-1h-34z"/><path fill="#FAB46D" d="M153 179h34v-7h-34z"/><path stroke="#DE8131" stroke-width=".908" d="M159 172v7m7-7v7m7-7v7m7-7v7"/><path fill="#FAB46D" d="M152 187h34v-7h-34z"/><path stroke="#DE8131" stroke-width=".908" d="M159 180v7m7-7v7m7-7v7m7-7v7"/><path fill="#9E4178" d="M153 180h34v-1h-34z"/><path fill="#FAB46D" d="M153 164h34v-7h-34z"/><path stroke="#DE8131" stroke-width=".908" d="M159 157v7m7-7v7m7-7v7m7-7v7"/><path fill="#FAB46D" d="M152 171h34v-7h-34z"/><path stroke="#DE8131" stroke-width=".908" d="M159 164v7m7-7v7m7-7v7m7-7v7"/><path fill="#9E4178" d="M153 164h34v-1h-34zm-95 25h138v-4H58z"/><path fill="#452277" d="M189.148 161.259h-.055l.055-.022v.022zM187.397 170s1.203-5.706 1.291-7.865c1.649-.12 6.312-1.433 6.312-1.433-.4-.202-5.213-1.57-6.147-1.835-.042-.45-.69-7.418-.873-7.867 0 0-1.637 6.033-1.675 7.735l.033.002-.025.017c-.782.166-5.892 1.25-6.313 1.429 0 0 4.285 1.524 6.042 1.83.198 1.312 1.152 7.562 1.355 7.987z"/><path fill="#FFF" d="M188.148 160.259h-.055l.055-.022v.022zm-1.75 8.741s1.202-5.706 1.29-7.865c1.649-.12 6.312-1.433 6.312-1.433-.4-.202-5.213-1.57-6.147-1.835-.042-.45-.69-7.418-.873-7.867 0 0-1.637 6.033-1.675 7.735l.033.002-.025.017c-.782.166-5.892 1.25-6.313 1.429 0 0 4.285 1.524 6.042 1.83.198 1.312 1.152 7.562 1.355 7.987z"/></g></svg>