<svg xmlns="http://www.w3.org/2000/svg" width="34" height="34" fill="none"><g clip-path="url(#a)"><path fill="#000" d="M17.012 0C26.392.005 34.002 7.622 34 17.003c0 9.39-7.64 17.016-17.028 16.997C7.59 33.981-.007 26.363 0 16.98.007 7.604 7.63-.005 17.012 0Zm9.123 9.811c-.7.252-1.394.498-2.085.752-.233.085-.39.028-.585-.141-1.175-1.03-2.53-1.3-3.985-.748-1.444.547-2.28 1.636-2.48 3.172-.057.44-.01.892-.01 1.352-3.221-.232-5.866-1.594-7.997-4.086-.94 2.056-.544 3.761 1.136 5.196l-.06.07c-.533-.15-1.064-.304-1.61-.46.011.89.288 1.687.84 2.39.553.704 1.281 1.146 2.144 1.384-.005.032-.01.064-.017.096H9.813c.65 1.665 1.84 2.544 3.591 2.725-1.261 1.108-2.9 1.58-5.617 1.632.109.074.182.135.264.182 3.222 1.822 6.607 2.117 9.984.663 4.36-1.876 6.456-5.414 6.718-10.085.026-.456.112-.766.491-1.047.555-.41 1.001-.941 1.392-1.533l-1.997.539-.036-.094c.718-.5 1.251-1.145 1.53-1.957l.002-.002Z"/><path fill="#fff" d="M26.134 9.811c-.281.813-.813 1.457-1.53 1.958l.035.093 1.997-.538c-.39.59-.837 1.122-1.392 1.533-.38.28-.465.59-.49 1.047-.263 4.67-2.36 8.209-6.72 10.085-3.374 1.454-6.76 1.159-9.983-.663-.082-.047-.157-.107-.264-.183 2.716-.052 4.356-.524 5.618-1.632-1.752-.18-2.942-1.06-3.592-2.725h1.613c.005-.032.01-.064.017-.096-.863-.238-1.591-.68-2.145-1.384a3.846 3.846 0 0 1-.839-2.389l1.61.46.06-.07c-1.68-1.435-2.075-3.14-1.136-5.196 2.13 2.493 4.776 3.855 7.998 4.085 0-.46-.05-.912.009-1.35.202-1.536 1.036-2.625 2.48-3.173 1.457-.552 2.81-.28 3.985.748.194.17.352.227.585.14.691-.254 1.386-.5 2.085-.75h-.001Z"/></g><defs><clipPath id="a"><path fill="#fff" d="M0 0h34v34H0z"/></clipPath></defs></svg>