<svg xmlns="http://www.w3.org/2000/svg" width="34" height="34" fill="none"><g clip-path="url(#a)"><path fill="#000" d="M0 16.969C.012 7.593 7.64-.011 17.022 0 26.415.01 34.024 7.65 34 17.046 33.976 26.42 26.335 34.026 16.962 34 7.58 33.975-.012 26.352 0 16.969Zm16.554-7.484-.004.08c-.123 0-.244-.005-.366 0-2.32.11-4.641.186-6.956.345-1.32.09-2.233.926-2.451 2.228-.196 1.162-.298 2.346-.362 3.525a27.72 27.72 0 0 0 .294 5.954c.231 1.417.995 2.227 2.412 2.437 1.048.155 2.112.222 3.17.269 4.005.177 8.008.172 12.005-.163 1.91-.16 2.776-.956 3.043-2.833.27-1.899.354-3.813.242-5.727-.07-1.189-.176-2.383-.38-3.555-.197-1.127-.958-1.814-2.078-2.068a5.826 5.826 0 0 0-1.016-.147c-2.518-.122-5.037-.234-7.556-.348l.003.003Z"/><path fill="#fff" d="M16.554 9.485c4.149-.07 7.294.153 8.572.494.379.101 1.082.298 1.58.92.248.312.419.694.498 1.147.205 1.172.313 2.366.38 3.556.111 1.913.027 3.827-.241 5.727-.266 1.876-1.133 2.673-3.043 2.833-3.997.335-8 .339-12.004.162-1.06-.047-2.124-.113-3.17-.269-1.42-.211-2.183-1.02-2.413-2.436-.322-1.973-.402-3.963-.294-5.955.064-1.178.166-2.362.362-3.525.11-.658.397-1.197.826-1.58.564-.505 1.242-.6 1.625-.647 2.538-.312 7.079-.422 7.325-.427h-.003Zm-1.652 4.34v6.352L20.416 17l-5.514-3.175v-.002Z"/><path fill="#000" d="m14.902 13.825 5.514 3.174c-1.857 1.069-3.665 2.112-5.514 3.175v-6.35Z"/></g><defs><clipPath id="a"><path fill="#fff" d="M0 0h34v34H0z"/></clipPath></defs></svg>